<?xml version="1.0" encoding="UTF-8"?>
<svg id="Vrstva_2" xmlns="http://www.w3.org/2000/svg" version="1.1" viewBox="0 0 623.4 74.5">
  <!-- Generator: Adobe Illustrator 29.3.1, SVG Export Plug-In . SVG Version: 2.1.0 Build 151)  -->
  <defs>
    <style>
      .st0 {
        fill: #fff;
      }
    </style>
  </defs>
  <g id="Vrstva_1-2">
    <g>
      <g>
        <path class="st0" d="M1.1,73c-.8,0-1.2-.4-1.1-1.2V10.1c0-.8.4-1.3,1.1-1.3h34.3c7.6,0,13.3,1.5,17,4.4s5.6,7.7,5.6,14.2-1.9,11.6-5.8,15.3c-3.9,3.7-9.5,5.6-16.8,5.6H5.8c-.5,0-.8.2-.8.8v22.7c0,.8-.4,1.2-1.3,1.2,0,0-2.7,0-2.7,0ZM5.8,43.8h29.3c5.3,0,9.6-1.4,12.8-4.1,3.2-2.8,4.8-6.8,4.8-12.2s-1.5-8.9-4.6-10.9c-3.1-2.1-7.4-3.1-13-3.1H5.8c-.5,0-.8.3-.8.8v28.8c0,.5.2.8.8.8h0Z"/>
        <path class="st0" d="M81.7,73c-.8,0-1.2-.4-1.1-1.2V10.1c0-.8.4-1.3,1.1-1.3h36.7c7.6,0,13.3,1.5,17,4.4s5.6,7.7,5.6,14.2-1.4,9.8-4.2,13.4-6.8,5.8-12.1,6.8c-.6.1-.8.5-.5,1l16.1,22.4c.4.4.5.9.3,1.3-.2.4-.5.7-1,.7h-2.6c-.8,0-1.4-.3-1.7-.8l-16.7-23.3c-.2-.3-.6-.5-1-.5h-31.3c-.5,0-.8.2-.8.8v22.7c0,.8-.4,1.2-1.3,1.2h-2.7ZM86.4,43.8h31.8c5.3,0,9.6-1.4,12.8-4.1,3.2-2.8,4.8-6.8,4.8-12.2s-1.5-8.9-4.6-10.9c-3.1-2.1-7.4-3.1-13-3.1h-31.8c-.5,0-.8.3-.8.8v28.8c0,.5.2.8.8.8h0Z"/>
        <path class="st0" d="M294,8.8c4.2,0,8,.3,11.5.9s6.9,1.6,10,3.1c3.1,1.4,5.8,3.3,8,5.5s4,5.1,5.2,8.6c1.3,3.5,1.9,7.5,1.9,11.9v4.2c0,5.8-.9,10.7-2.8,14.7s-4.6,7.2-8.1,9.4c-3.5,2.2-7.4,3.7-11.5,4.7-4.1.9-8.9,1.4-14.2,1.4h-30c-.8,0-1.2-.4-1.1-1.2V10.1c0-.8.4-1.3,1.1-1.3h30,0ZM325.4,42.9v-4.1c0-16.8-10.5-25.2-31.4-25.2h-25.3c-.5,0-.8.2-.8.7v53.2c0,.5.2.8.8.8h25.3c10.4,0,18.3-2,23.5-6,5.2-4,7.9-10.5,7.9-19.4h0Z"/>
        <path class="st0" d="M387.3,74.5c-21.9,0-32.9-10.7-32.9-32V10.1c0-.8.4-1.3,1.1-1.3h2.8c.8,0,1.2.4,1.2,1.3v32.4c0,18.2,9.2,27.3,27.8,27.2,17.1,0,25.6-9.1,25.6-27.2V10.1c0-.8.4-1.3,1.2-1.3h2.8c.8,0,1.3.4,1.3,1.3v32.4c0,21.3-10.3,32-30.8,32h0Z"/>
        <path class="st0" d="M446.8,73c-.8,0-1.2-.4-1.1-1.2V10.1c0-.8.4-1.3,1.1-1.3h39.7c5.9,0,10.2,1.3,13,4,2.8,2.7,4.2,6.2,4.2,10.6,0,7.2-3.3,12.2-10,15-.6.2-.6.3,0,.5,4,.6,7.4,2.3,10.1,5.1,2.7,2.8,4,6.4,4,10.7s-1.7,10-5.2,13.3c-3.5,3.3-8.8,5-16.1,5h-39.8,0ZM451.4,37.6h31.9c4.4,0,8-1.2,10.9-3.4,2.9-2.3,4.3-5.5,4.3-9.8,0-7.2-4.2-10.8-12.6-10.9h-34.4c-.5,0-.8.3-.8.8v22.5c0,.5.2.8.8.8h0ZM451.4,68.3h34.5c5.9,0,10.1-1.3,12.8-3.9,2.6-2.6,3.9-6,3.9-10.3s-1.3-6.9-3.9-9.2c-2.6-2.3-5.8-3.5-9.6-3.5h-37.7c-.5,0-.8.3-.8.8v25.3c0,.5.2.8.8.8h0Z"/>
        <path class="st0" d="M527.2,73c-.5,0-.8-.2-1-.5s-.2-.8,0-1.2l31.1-62.3c.1-.4.4-.6.9-.6h5c.6,0,.9.2.9.6l31.1,62.3c.2.4.2.8,0,1.2s-.5.5-1.1.5h-3c-.5,0-.9-.2-1.2-.8l-6.2-12.4c-.1-.4-.4-.6-.9-.6h-44.2c-.5,0-.8.2-1,.6l-6.2,12.4c-.2.5-.6.8-1.2.8h-3.1ZM540.6,55.1h40.1c.6,0,.8-.3.6-.8l-20.2-39.8c0-.3-.2-.5-.5-.5-.3,0-.5.1-.6.5l-20,39.8c-.2.6,0,.8.5.8Z"/>
        <path class="st0" d="M619.4,73c-.8,0-1.2-.4-1.1-1.2V10.1c0-.8.4-1.3,1.1-1.3h2.9c.8,0,1.2.4,1.1,1.3v61.8c0,.8-.4,1.2-1.1,1.2h-2.9Z"/>
      </g>
      <path class="st0" d="M209.7,8.2c-.6-.2-1.3.3-1.3,1v3.1c0,.4.3.8.7.9,11.4,3.9,19.6,14.6,19.6,27.3s-7.7,22.7-18.5,26.9h-1c-.3,0-.6-.2-.6-.6v-4.5c0-.3-.2-.6-.6-.6h-.6c-.3,0-.6-.2-.6-.6v-12.8c0-.3-.2-.6-.6-.6h-.8c-.3,0-.6-.2-.6-.6v-12.8c0-.3-.2-.6-.6-.6h-.6c-.3,0-.6-.2-.6-.6v-13.3c0-.3-.2-.6-.6-.6h-.4c-.3,0-.6-.2-.6-.6v-10.1c0-.3-.2-.5-.5-.5-.3,0-.6-.2-.6-.6V.5c0-.2-.2-.4-.4-.4h-.6c-.2,0-.4.2-.4.4v7.5c0,.3-.2.5-.5.5-.3,0-.6.2-.6.6v3.8c0,.3-.2.6-.6.6h-.2c-.3,0-.6.2-.6.6v13c0,.3-.2.6-.6.6h-.8c-.3,0-.6.2-.6.6v12.8c0,.3-.2.6-.6.6h-1c-.3,0-.6.2-.6.6v12.8c0,.3-.2.6-.6.6h-.8c-.3,0-.6.2-.6.6v11c0,.3-.2.6-.6.6h-.8c-10.8-4.2-18.5-14.7-18.5-26.9s8.2-23.4,19.6-27.3c.4-.1.7-.5.7-.9v-3.1c0-.7-.7-1.2-1.3-1-14.5,4.4-24.8,18.3-23.9,34.5,1,16.4,15,30.5,31.4,31.6,19.7,1.3,36.1-14.3,36.1-33.7s-10.1-28.1-24-32.3h0Z"/>
    </g>
  </g>
</svg>